<svg width="100%" viewBox="0 0 48 48" fill="none" xmlns="http://www.w3.org/2000/svg">
<g clip-path="url(#clip0_5937_455)">
<path d="M32.0098 41.1445H27.4355V43.4395H32.0098V45.7197H27.4355V48H20.5801V45.7197H27.4346V43.4404H20.5801V41.1445H27.4346V38.8652H32.0098V41.1445ZM20.5801 45.7197H16.0049V43.4404H20.5801V45.7197ZM16.0049 43.4404H13.71V41.1445H16.0049V43.4404ZM34.29 43.4395H32.0098V41.1445H34.29V43.4395ZM13.71 41.1445H11.4307V38.8652H13.71V41.1445ZM20.5801 41.1445H16.0049V38.8652H20.5801V41.1445ZM36.5693 41.1445H34.29V38.8652H36.5693V41.1445ZM11.4307 38.8652H9.15039V36.585H11.4307V38.8652ZM16.0049 38.8652H13.71V36.585H16.0049V38.8652ZM34.29 38.8652H32.0098V36.585H34.29V38.8652ZM38.8643 38.8652H36.5693V36.585H38.8643V38.8652ZM9.15039 36.585H6.85547V32.0098H9.15039V36.585ZM13.71 36.585H11.4307V32.0098H13.71V36.585ZM36.5693 36.585H34.29V32.0098H36.5693V36.585ZM41.1445 36.585H38.8643V32.0098H41.1445V36.585ZM6.85547 32.0098H4.5752V6.87012H6.85547V32.0098ZM11.4307 32.0098H9.15039V9.15039H11.4307V32.0098ZM38.8643 32.0098H36.5693V9.15039H38.8643V32.0098ZM43.4248 32.0098H41.1445V6.87012H43.4248V32.0098ZM25.125 31.7383H22.875V29.4883H20.625V27.2383H18.375V24.9883H16.125V18.2383H18.375V15.9883H20.625V13.7383H22.875V11.4883H25.125V13.7383H27.4355V15.9883H29.6855V18.2383H31.9355V24.9883H29.6855V27.2383H27.4355V29.4883H25.125V31.7383ZM20.625 24.9883H27.4355V18.2383H20.625V24.9883ZM16.0049 9.15039H11.4307V6.87012H16.0049V9.15039ZM36.5693 9.15039H32.0098V6.87012H36.5693V9.15039ZM11.4307 6.87012H6.85547V4.5752H11.4307V6.87012ZM32.0098 6.87012H16.0049V4.5752H32.0098V6.87012ZM41.1445 6.87012H36.5693V4.5752H41.1445V6.87012ZM16.0049 4.5752H11.4307V2.29492H16.0049V4.5752ZM36.5693 4.5752H32.0098V2.29492H36.5693V4.5752ZM32.0098 2.29492H16.0049V0H32.0098V2.29492Z" fill="#2E7BFF"></path>
</g>
<defs>
<clipPath id="clip0_5937_455">
<rect width="48" height="48" fill="white"></rect>
</clipPath>
</defs>
</svg>
