<svg width="48" height="48" viewBox="0 0 48 48" fill="none" xmlns="http://www.w3.org/2000/svg">
  <!-- Bird body -->
  <path d="M24 38C24 38 10 32 10 22C10 16 14 12 20 12C22 12 24 13 24 13C24 13 26 12 28 12C34 12 38 16 38 22C38 32 24 38 24 38Z" fill="#7C3AED" stroke="white" stroke-width="1.5"/>
  <!-- Left wing -->
  <path d="M10 22C10 22 4 18 2 12C6 14 12 15 14 16" fill="#7C3AED" stroke="white" stroke-width="1.5" stroke-linecap="round"/>
  <!-- Right wing -->
  <path d="M38 22C38 22 44 18 46 12C42 14 36 15 34 16" fill="#7C3AED" stroke="white" stroke-width="1.5" stroke-linecap="round"/>
  <!-- Eye left -->
  <circle cx="20" cy="20" r="2.5" fill="white"/>
  <circle cx="20.5" cy="19.5" r="1" fill="#1E1B4B"/>
  <!-- Eye right -->
  <circle cx="28" cy="20" r="2.5" fill="white"/>
  <circle cx="28.5" cy="19.5" r="1" fill="#1E1B4B"/>
  <!-- Beak -->
  <path d="M22 24L24 28L26 24" fill="#FBBF24" stroke="#F59E0B" stroke-width="0.5"/>
  <!-- Globe lines (global wingbirds) -->
  <ellipse cx="24" cy="6" rx="8" ry="3" stroke="white" stroke-width="0.8" stroke-dasharray="2 2" opacity="0.5"/>
</svg>
